# xmcd
#
# Track frame offsets:
#	150
#	87388
#	89023
#	101812
#	176960
#	182004
#	192107
#	195020
#	198861
#
# Disc length: 2720 seconds
#
# Revision: 1
# Processed by: cddbd v1.5.2PL0 Copyright (c) Steve Scherf et al.
# Submitted via: audiograbber 1.83.01
#
DISCID=740a9e09
DTITLE=Grateful Dead - 69-12-30 Boston Tea Party, Boston MA
DYEAR=1900
DGENRE=
TTITLE0=Dark Star
TTITLE1=Alligator
TTITLE2=Drums
TTITLE3=The Eleven
TTITLE4=We Bid You Goodnight Jam
TTITLE5=Alligator Reprise
TTITLE6=Caution Jam
TTITLE7=Feedback
TTITLE8=And We Bid You Goodnight
EXTD=
EXTT0=
EXTT1=
EXTT2=
EXTT3=
EXTT4=
EXTT5=
EXTT6=
EXTT7=
EXTT8=
PLAYORDER=
